<?xml version="1.0" encoding="UTF-8"?>
<!DOCTYPE svg PUBLIC "-//W3C//DTD SVG 1.1//EN" "http://www.w3.org/Graphics/SVG/1.1/DTD/svg11.dtd">
<svg xmlns="http://www.w3.org/2000/svg" version="1.1" width="512px" height="512px" style="shape-rendering:geometricPrecision; text-rendering:geometricPrecision; image-rendering:optimizeQuality; fill-rule:evenodd; clip-rule:evenodd" xmlns:xlink="http://www.w3.org/1999/xlink">
<g><path style="opacity:0.992" fill="#000000" d="M 511.5,300.5 C 511.5,304.5 511.5,308.5 511.5,312.5C 484.496,409.339 422.829,472.506 326.5,502C 237.422,523.391 157.755,505.058 87.5,447C 36.2571,400.348 6.92375,342.515 -0.5,273.5C -0.5,258.5 -0.5,243.5 -0.5,228.5C 13.4349,121.401 70.4349,47.5674 170.5,7C 176.88,5.15481 183.214,3.15481 189.5,1C 204.692,-1.12958 212.525,5.37042 213,20.5C 212.333,22.5 211.667,24.5 211,26.5C 177.63,68.285 163.63,115.952 169,169.5C 181.428,249.921 225.928,303.754 302.5,331C 355.067,346.47 405.4,341.137 453.5,315C 465.534,306.988 477.534,298.988 489.5,291C 499.405,288.677 506.739,291.844 511.5,300.5 Z"/></g>
</svg>
