<?xml version="1.0" encoding="UTF-8" standalone="no" ?>
<!DOCTYPE svg PUBLIC "-//W3C//DTD SVG 1.1//EN" "http://www.w3.org/Graphics/SVG/1.1/DTD/svg11.dtd">
<svg xmlns="http://www.w3.org/2000/svg" xmlns:xlink="http://www.w3.org/1999/xlink" version="1.1" width="950" height="950" viewBox="0 0 1080 1080" xml:space="preserve">
<desc>Created with Fabric.js 5.2.4</desc>
<defs>
</defs>
<g transform="matrix(1 0 0 1 540 540)" id="b8fae4c8-8fc4-4622-b204-1f60ac6bc937"  >
</g>
<g transform="matrix(1 0 0 1 540 540)" id="377a0cdc-048d-4818-b366-410facfb8b9c"  >
<rect style="stroke: none; stroke-width: 1; stroke-dasharray: none; stroke-linecap: butt; stroke-dashoffset: 0; stroke-linejoin: miter; stroke-miterlimit: 4; fill: rgb(255,255,255); fill-rule: nonzero; opacity: 1; visibility: hidden;" vector-effect="non-scaling-stroke"  x="-540" y="-540" rx="0" ry="0" width="1080" height="1080" />
</g>
<g transform="matrix(-0.71 -0.71 0.71 -0.71 540 540)"  >
<g style="" vector-effect="non-scaling-stroke"   >
		<g transform="matrix(0.95 0 0 0.95 0 0)"  >
<rect style="stroke: none; stroke-width: 1; stroke-dasharray: none; stroke-linecap: butt; stroke-dashoffset: 0; stroke-linejoin: miter; stroke-miterlimit: 4; fill: rgb(255,255,255); fill-rule: nonzero; opacity: 1; visibility: hidden;" vector-effect="non-scaling-stroke"  x="-540" y="-540" rx="0" ry="0" width="1080" height="1080" />
</g>
		<g transform="matrix(5.42 5.42 -2.99 2.99 93.68 -92.03)"  >
<rect style="stroke: rgb(0,0,0); stroke-width: 0; stroke-dasharray: none; stroke-linecap: butt; stroke-dashoffset: 0; stroke-linejoin: miter; stroke-miterlimit: 4; fill: var(--accent); fill-rule: nonzero; opacity: 1;" vector-effect="non-scaling-stroke"  x="-33.085" y="-33.085" rx="0" ry="0" width="66.17" height="66.17" />
</g>
		<g transform="matrix(0.81 0 0 0.81 -140.07 141.19)"  >
<path style="stroke: none; stroke-width: 1; stroke-dasharray: none; stroke-linecap: butt; stroke-dashoffset: 0; stroke-linejoin: miter; stroke-miterlimit: 4; fill: rgb(0,0,0); fill-rule: nonzero; opacity: 1;" vector-effect="non-scaling-stroke"  transform=" translate(-296.22, -644.26)" d="M 120.269 930.855 C 134.44 945.025 159.111 943.332 175.372 927.07 L 347.43100000000004 755.0110000000001 L 472.576 880.1560000000001 C 488.838 896.416 515.202 896.416 531.465 880.1560000000001 L 580.23 831.3900000000001 C 596.491 815.1300000000001 596.491 788.7650000000001 580.23 772.5030000000002 L 167.97000000000003 360.24200000000013 C 151.70900000000003 343.9810000000001 125.34400000000002 343.9810000000001 109.08200000000002 360.24200000000013 L 60.31700000000002 409.0070000000001 C 44.056000000000026 425.26800000000014 44.056000000000026 451.6330000000001 60.31700000000002 467.8950000000001 L 185.46200000000002 593.0400000000001 L 13.402 765.102 C -2.859 781.362 -4.554 806.034 9.616999999999999 820.204 L 120.269 930.855 z M 104.553 774.85 C 121.417 757.985 148.76 757.985 165.624 774.85 C 182.489 791.713 182.489 819.057 165.624 835.9200000000001 C 148.76 852.7830000000001 121.417 852.7830000000001 104.553 835.9200000000001 C 87.688 819.057 87.688 791.713 104.553 774.85 z" stroke-linecap="round" />
</g>
		<g transform="matrix(0.81 0 0 0.81 74.45 -73.02)"  >
<path style="stroke: none; stroke-width: 1; stroke-dasharray: none; stroke-linecap: butt; stroke-dashoffset: 0; stroke-linejoin: miter; stroke-miterlimit: 4; fill: rgb(0,0,0); fill-rule: nonzero; opacity: 1;" vector-effect="non-scaling-stroke"  transform=" translate(-561.48, -378.99)" d="M 182.89 308.062 C 182.97699999999998 308.666 183.07899999999998 309.26800000000003 183.195 309.868 C 183.33599999999998 310.59499999999997 183.505 311.318 183.689 312.038 C 185.322 318.442 188.637 324.505 193.648 329.517 L 297.975 433.844 L 610.9570000000001 746.826 C 613.7450000000001 749.613 616.8560000000001 751.879 620.1720000000001 753.621 C 621.2760000000002 754.201 622.4040000000001 754.725 623.5500000000002 755.189 C 625.2690000000002 755.886 627.0280000000001 756.4509999999999 628.8120000000001 756.8879999999999 C 630.0730000000001 757.1949999999999 631.3470000000001 757.4329999999999 632.6280000000002 757.6109999999999 C 633.6830000000001 757.7569999999998 634.7420000000002 757.8569999999999 635.8050000000002 757.9159999999998 C 635.9150000000002 757.9219999999998 636.0250000000002 757.9299999999998 636.1360000000002 757.9359999999998 C 636.7160000000002 757.9629999999999 637.2950000000002 757.9789999999998 637.8750000000002 757.9789999999998 C 637.8940000000002 757.9789999999998 637.9120000000003 757.9769999999999 637.9300000000002 757.9769999999999 C 638.7210000000002 757.9749999999999 639.5110000000002 757.9419999999999 640.3010000000002 757.8909999999998 C 640.5110000000002 757.8769999999998 640.7210000000001 757.8619999999999 640.9300000000002 757.8459999999999 C 641.7350000000001 757.7819999999999 642.5390000000002 757.7009999999999 643.3390000000002 757.5859999999999 C 646.3580000000002 757.1499999999999 649.3350000000002 756.3519999999999 652.1980000000002 755.1899999999999 C 653.3440000000002 754.7249999999999 654.4710000000002 754.204 655.5760000000002 753.622 C 656.1290000000002 753.333 656.6770000000002 753.0279999999999 657.2170000000002 752.708 C 659.2450000000002 751.511 661.1850000000002 750.108 663.0090000000002 748.501 C 663.6160000000002 747.968 664.2120000000002 747.409 664.7920000000003 746.827 L 787.1050000000002 624.515 L 909.42 502.199 L 929.318 482.301 C 929.92 481.699 930.495 481.084 931.047 480.455 C 934.908 476.051 937.575 470.965 939.063 465.621 C 942.625 452.822 939.383 438.52599999999995 929.319 428.461 L 924.53 423.673 L 548.13 47.267 L 512.013 11.15 C 511.08400000000006 10.221 510.117 9.35 509.122 8.537 C 508.12600000000003 7.724000000000001 507.09700000000004 6.969000000000001 506.041 6.272 C 504.45799999999997 5.227 502.813 4.312 501.124 3.528 C 499.99800000000005 3.005 498.851 2.541 497.687 2.1340000000000003 C 496.524 1.7270000000000003 495.346 1.3790000000000004 494.156 1.0890000000000004 C 492.373 0.6530000000000005 490.562 0.3490000000000004 488.742 0.17400000000000038 C 488.171 0.11900000000000038 487.598 0.08000000000000038 487.02500000000003 0.05100000000000038 C 486.83700000000005 0.041000000000000376 486.64900000000006 0.03900000000000038 486.46200000000005 0.033000000000000376 C 486.07400000000007 0.019000000000000378 485.68800000000005 0.0070000000000003774 485.30000000000007 0.005000000000000376 C 485.23100000000005 0.005000000000000376 485.1620000000001 3.7556763254897874e-16 485.0930000000001 3.7556763254897874e-16 C 484.98500000000007 3.7556763254897874e-16 484.87700000000007 0.009000000000000376 484.76900000000006 0.010000000000000377 C 484.22400000000005 0.015000000000000378 483.6790000000001 0.031000000000000378 483.13500000000005 0.05900000000000038 C 482.96900000000005 0.06800000000000038 482.80300000000005 0.07400000000000037 482.63700000000006 0.08400000000000038 C 481.96600000000007 0.1270000000000004 481.2950000000001 0.1860000000000004 480.62600000000003 0.26400000000000035 C 480.50600000000003 0.27800000000000036 480.386 0.2980000000000004 480.26500000000004 0.31300000000000033 C 479.70000000000005 0.38500000000000034 479.136 0.4700000000000003 478.57400000000007 0.5670000000000004 C 478.39200000000005 0.5980000000000004 478.21200000000005 0.6300000000000003 478.02900000000005 0.6640000000000004 C 477.36000000000007 0.7900000000000004 476.69200000000006 0.9270000000000004 476.02900000000005 1.0890000000000004 C 475.59400000000005 1.1950000000000005 475.16300000000007 1.3180000000000005 474.7300000000001 1.4400000000000004 C 468.66800000000006 3.1490000000000005 462.9440000000001 6.380000000000001 458.17300000000006 11.151 L 453.44200000000006 15.882 L 193.648 275.677 C 190.072 279.25300000000004 187.365 283.367 185.51 287.754 C 185.346 288.142 185.19 288.53200000000004 185.039 288.92400000000004 C 184.518 290.28000000000003 184.076 291.658 183.71599999999998 293.05400000000003 C 183.35199999999998 294.46400000000006 183.06599999999997 295.89000000000004 182.86599999999999 297.326 C 182.707 298.47 182.59599999999998 299.619 182.541 300.77000000000004 C 182.512 301.37800000000004 182.49699999999999 301.987 182.49699999999999 302.59600000000006 C 182.49699999999999 303.20500000000004 182.511 303.8140000000001 182.541 304.4220000000001 C 182.599 305.639 182.715 306.854 182.89 308.062 z M 479.388 32.363 C 481.342 30.41 483.56899999999996 30 485.094 30 C 486.619 30 488.847 30.41 490.8 32.363 L 908.109 449.673 C 910.063 451.625 910.4730000000001 453.854 910.4730000000001 455.379 C 910.4730000000001 456.903 910.0630000000001 459.13100000000003 908.109 461.084 L 872.349 496.844 C 850.0600000000001 494.268 827.345 494.674 806.0160000000001 501.442 C 788.863 506.885 775.364 516.829 761.8810000000001 528.475 C 747.6700000000001 540.748 732.1350000000001 553.76 713.0070000000001 557.024 C 696.8220000000001 559.784 678.023 557.688 666.5310000000001 544.485 C 654.5010000000001 530.6610000000001 650.6120000000001 511.608 655.1890000000001 493.887 C 659.863 475.793 670.624 460.588 681.4060000000001 445.654 C 692.5960000000001 430.157 704.273 414.842 713.6650000000001 398.151 C 722.7350000000001 382.03000000000003 743.297 351.035 731.883 332.241 C 719.913 312.538 690.043 320.931 673.922 329.979 C 640.6850000000001 348.67199999999997 616.9100000000001 378.918 594.138 408.73199999999997 C 587.667 417.20399999999995 581.3140000000001 425.79999999999995 574.557 434.04799999999994 C 568.433 441.52399999999994 561.338 448.33799999999997 552.03 451.56399999999996 C 533.019 458.15399999999994 514.766 446.609 512.232 426.84299999999996 C 509.75199999999995 407.48799999999994 524.675 392.597 537.461 380.33299999999997 C 551.87 366.51399999999995 567.139 353.61499999999995 581.445 339.688 C 594.9720000000001 326.52 608.375 312.41499999999996 617.4830000000001 295.717 C 620.6160000000001 289.97299999999996 623.6300000000001 283.294 624.6790000000001 276.566 C 597.614 277.181 570.407 277.75399999999996 544.7860000000001 267.44899999999996 C 528.4140000000001 260.864 513.5980000000001 250.02699999999996 504.77200000000005 234.41299999999995 C 497.10100000000006 220.84199999999996 493.88000000000005 205.45699999999997 493.56200000000007 189.96199999999996 C 492.92500000000007 158.99499999999995 501.2680000000001 128.27299999999997 495.4630000000001 97.39299999999996 C 491.5400000000001 76.52099999999996 483.72800000000007 56.881999999999955 472.3230000000001 39.424999999999955 L 479.388 32.363 z" stroke-linecap="round" />
</g>
</g>
</g>
</svg>