<?xml version="1.0" ?>

<!-- Uploaded to: SVG Repo, www.svgrepo.com, Generator: SVG Repo Mixer Tools -->
<svg width="800px" height="800px" viewBox="0 0 24 24" version="1.1" xml:space="preserve" xmlns="http://www.w3.org/2000/svg" xmlns:xlink="http://www.w3.org/1999/xlink">

<style type="text/css">

</style>

<g id="Layer_1"/>

<g id="Layer_2">

<path d="M20,11h-2c0,0-0.1,0-0.1,0c-0.2-0.9-0.5-1.8-1-2.5c0,0,0.1,0,0.1-0.1l1.4-1.4c0.4-0.4,0.4-1,0-1.4s-1-0.4-1.4,0l-1.4,1.4   c0,0,0,0.1-0.1,0.1c-0.7-0.5-1.6-0.9-2.5-1c0,0,0-0.1,0-0.1V4c0-0.6-0.4-1-1-1s-1,0.4-1,1v2c0,0,0,0.1,0,0.1   c-0.9,0.2-1.8,0.5-2.5,1c0,0,0-0.1-0.1-0.1L7.1,5.6c-0.4-0.4-1-0.4-1.4,0s-0.4,1,0,1.4l1.4,1.4c0,0,0.1,0,0.1,0.1   c-0.5,0.7-0.9,1.6-1,2.5c0,0-0.1,0-0.1,0H4c-0.6,0-1,0.4-1,1s0.4,1,1,1h2c0,0,0.1,0,0.1,0c0.2,0.9,0.5,1.8,1,2.5c0,0-0.1,0-0.1,0.1   l-1.4,1.4c-0.4,0.4-0.4,1,0,1.4c0.2,0.2,0.5,0.3,0.7,0.3s0.5-0.1,0.7-0.3l1.4-1.4c0,0,0-0.1,0.1-0.1c0.7,0.5,1.6,0.9,2.5,1   c0,0,0,0.1,0,0.1v2c0,0.6,0.4,1,1,1s1-0.4,1-1v-2c0,0,0-0.1,0-0.1c0.9-0.2,1.8-0.5,2.5-1c0,0,0,0.1,0.1,0.1l1.4,1.4   c0.2,0.2,0.5,0.3,0.7,0.3s0.5-0.1,0.7-0.3c0.4-0.4,0.4-1,0-1.4l-1.4-1.4c0,0-0.1,0-0.1-0.1c0.5-0.7,0.9-1.6,1-2.5c0,0,0.1,0,0.1,0   h2c0.6,0,1-0.4,1-1S20.6,11,20,11z M12,16c-2.2,0-4-1.8-4-4s1.8-4,4-4s4,1.8,4,4S14.2,16,12,16z"/>

</g>

</svg>