<?xml version="1.0" standalone="no"?>
<!DOCTYPE svg PUBLIC "-//W3C//DTD SVG 20010904//EN"
 "http://www.w3.org/TR/2001/REC-SVG-20010904/DTD/svg10.dtd">
<svg version="1.0" xmlns="http://www.w3.org/2000/svg"
 width="512.000000pt" height="512.000000pt" viewBox="0 0 512.000000 512.000000"
 preserveAspectRatio="xMidYMid meet">

<g transform="translate(0.000000,512.000000) scale(0.100000,-0.100000)"
fill="#000000" stroke="none">
<path d="M1665 4476 c-269 -59 -526 -141 -765 -241 -129 -55 -121 -46 -253
-267 -470 -783 -681 -1599 -637 -2466 6 -120 13 -224 15 -232 6 -18 297 -213
424 -285 131 -74 344 -178 476 -233 159 -67 387 -144 395 -135 61 71 260 400
260 431 0 5 -30 22 -67 37 -126 52 -343 166 -343 180 0 8 20 30 45 50 l45 37
122 -50 c790 -323 1594 -319 2376 10 51 21 98 36 105 32 35 -21 87 -67 87 -79
0 -13 -211 -124 -325 -170 -38 -16 -75 -33 -82 -39 -9 -8 3 -38 53 -125 62
-108 200 -321 208 -321 13 0 261 90 366 132 255 103 579 279 807 437 56 39
107 79 112 89 5 10 15 117 21 238 36 749 -112 1450 -451 2125 -86 172 -179
334 -270 470 l-58 86 -128 53 c-299 123 -589 209 -891 264 l-32 6 -67 -138
c-36 -75 -67 -138 -67 -138 -1 -1 -46 4 -101 12 -286 38 -684 38 -970 0 -55
-8 -100 -13 -100 -12 -16 45 -140 276 -148 275 -7 0 -79 -15 -162 -33z m1934
-1636 c121 -57 227 -195 262 -340 19 -81 14 -222 -10 -300 -44 -141 -136 -251
-258 -312 -64 -31 -73 -33 -178 -33 -108 0 -113 1 -187 38 -345 170 -374 696
-51 919 119 81 283 92 422 28z m-1703 1 c123 -61 215 -175 258 -320 20 -69 21
-227 1 -301 -39 -146 -137 -271 -261 -331 -66 -32 -75 -34 -179 -34 -103 0
-114 2 -178 32 -95 45 -178 127 -226 224 -51 101 -65 170 -58 289 8 158 80
304 191 388 101 77 152 93 282 90 91 -3 107 -7 170 -37z"/>
</g>
</svg>
