<?xml version="1.0" encoding="utf-8"?><!-- Uploaded to: SVG Repo, www.svgrepo.com, Generator: SVG Repo Mixer Tools -->
<svg width="800px" height="800px" viewBox="0 0 64 64" xmlns="http://www.w3.org/2000/svg" xmlns:xlink="http://www.w3.org/1999/xlink" aria-hidden="true" role="img" class="iconify iconify--emojione-monotone" preserveAspectRatio="xMidYMid meet"><path d="M20.52 59.717l7.027-7.2a20.87 20.87 0 0 1-6.904-2.87l-.123 10.07" fill="#000000"></path><path d="M43.48 4.284l-7.025 7.199a20.872 20.872 0 0 1 6.904 2.871l.121-10.07" fill="#000000"></path><path d="M11.484 36.454l-7.201 7.025l10.07-.122a20.85 20.85 0 0 1-2.869-6.903" fill="#000000"></path><path d="M52.516 27.547l7.201-7.027l-10.07.123a20.856 20.856 0 0 1 2.869 6.904" fill="#000000"></path><path d="M14.354 20.642l-10.07-.123l7.201 7.027a20.805 20.805 0 0 1 2.869-6.904" fill="#000000"></path><path d="M49.646 43.358l10.07.122l-7.201-7.026a20.814 20.814 0 0 1-2.869 6.904" fill="#000000"></path><path d="M27.547 11.483l-7.027-7.2l.123 10.07a20.87 20.87 0 0 1 6.904-2.87" fill="#000000"></path><path d="M36.453 52.517l7.027 7.199l-.123-10.069a20.891 20.891 0 0 1-6.904 2.87" fill="#000000"></path><path d="M14.752 43.962l-3.967 9.251l9.252-3.965a21.104 21.104 0 0 1-5.285-5.286" fill="#000000"></path><path d="M49.248 20.039l3.965-9.252l-9.25 3.965a21.108 21.108 0 0 1 5.285 5.287" fill="#000000"></path><path d="M11 32c0-1.278.133-2.524.352-3.741L2 31.999l9.352 3.74A21.034 21.034 0 0 1 11 32z" fill="#000000"></path><path d="M62 32l-9.352-3.741C52.867 29.476 53 30.722 53 32c0 1.279-.133 2.525-.352 3.741L62 32z" fill="#000000"></path><path d="M20.039 14.751l-9.252-3.965l3.965 9.252a21.149 21.149 0 0 1 5.287-5.287" fill="#000000"></path><path d="M43.961 49.248l9.252 3.965l-3.965-9.251a21.128 21.128 0 0 1-5.287 5.286" fill="#000000"></path><path d="M35.74 11.352L32 2l-3.74 9.352C29.475 11.133 30.721 11 32 11s2.525.133 3.74.352" fill="#000000"></path><path d="M28.26 52.648L32 62l3.74-9.352c-1.215.219-2.461.352-3.74.352s-2.525-.133-3.74-.352" fill="#000000"></path><circle cx="32" cy="32" r="19" fill="#000000"></circle></svg>